<?xml version="1.0" standalone="no"?>
<!DOCTYPE svg PUBLIC "-//W3C//DTD SVG 20010904//EN"
 "http://www.w3.org/TR/2001/REC-SVG-20010904/DTD/svg10.dtd">
<svg version="1.0" xmlns="http://www.w3.org/2000/svg"
 width="809.000000pt" height="260.000000pt" viewBox="0 0 809.000000 260.000000"
 preserveAspectRatio="xMidYMid meet">

<g transform="translate(0.000000,260.000000) scale(0.100000,-0.100000)"
fill="#000000" stroke="none">
<path d="M514 2213 c17 -100 12 -93 70 -93 l53 0 95 -362 96 -363 -23 -30
c-69 -91 -72 -173 -14 -292 l34 -68 165 -6 c91 -3 369 -7 618 -8 l452 -1 0 75
0 75 -554 0 -555 0 -20 27 c-32 40 -36 71 -15 111 10 19 24 37 32 39 7 3 264
47 570 97 l557 92 6 71 c4 38 10 159 14 267 l7 196 -633 -2 -633 -3 -34 108
-33 107 -131 0 -130 0 6 -37z m661 -369 c14 -6 45 -53 45 -69 0 -15 -57 -3
-68 15 -14 22 -42 26 -60 8 -20 -20 -14 -27 41 -43 76 -22 91 -35 91 -80 0
-52 -30 -75 -98 -75 -28 0 -58 6 -67 13 -18 13 -39 50 -39 66 0 20 43 11 66
-14 26 -28 42 -31 69 -11 27 20 12 43 -34 51 -82 14 -118 78 -71 125 20 20 88
28 125 14z m235 -56 c19 -94 24 -95 45 -13 l19 76 35 -3 35 -3 20 -80 19 -80
14 60 c7 33 15 70 18 83 4 16 13 22 34 22 l28 0 -31 -125 -30 -125 -31 0 c-30
0 -32 2 -49 73 -22 85 -31 99 -40 60 -30 -119 -36 -133 -66 -133 -32 0 -33 1
-65 145 -9 39 -18 78 -21 88 -4 13 1 17 24 17 28 0 30 -3 42 -62z"/>
<path d="M1024 920 c-100 -21 -154 -139 -108 -236 63 -132 265 -110 303 32 32
121 -72 229 -195 204z"/>
<path d="M1843 919 c-98 -20 -154 -125 -117 -217 52 -131 232 -144 295 -21 36
71 14 173 -45 212 -34 23 -95 35 -133 26z"/>
</g>
</svg>